/* XPM */
static char * squidward_painting_xpm[] = {
"64 64 412 2",
"  	c #DD3745",
". 	c #DD3743",
"+ 	c #DD3744",
"@ 	c #DC3743",
"# 	c #FF6859",
"$ 	c #FF6959",
"% 	c #DC3744",
"& 	c #FE685C",
"* 	c #FE695A",
"= 	c #FF6958",
"- 	c #DD3643",
"; 	c #DB3744",
"> 	c #FF675B",
", 	c #FE6959",
"' 	c #DD3844",
") 	c #DB3844",
"! 	c #FF685B",
"~ 	c #FF685A",
"{ 	c #FF695A",
"] 	c #DB3743",
"^ 	c #FE6A57",
"/ 	c #FF6759",
"( 	c #FD6C5A",
"_ 	c #FEA86E",
": 	c #FF675A",
"< 	c #FD6C5B",
"[ 	c #FEA66D",
"} 	c #FFAA6D",
"| 	c #CD3F4B",
"1 	c #D03D4A",
"2 	c #CC3F4B",
"3 	c #D13C4A",
"4 	c #DC3745",
"5 	c #DA3843",
"6 	c #FE6A59",
"7 	c #FB7158",
"8 	c #FFAA6E",
"9 	c #DA3845",
"0 	c #D83947",
"a 	c #130000",
"b 	c #140000",
"c 	c #0E0000",
"d 	c #170000",
"e 	c #D43B49",
"f 	c #DD3645",
"g 	c #FD6A58",
"h 	c #FB6F58",
"i 	c #FF9F6C",
"j 	c #010000",
"k 	c #000000",
"l 	c #46BA81",
"m 	c #43BB7E",
"n 	c #43BB7F",
"o 	c #4CB780",
"p 	c #D73B47",
"q 	c #DE3946",
"r 	c #FE6E58",
"s 	c #FFA770",
"t 	c #FFAA6F",
"u 	c #FFA96F",
"v 	c #D23B4A",
"w 	c #060000",
"x 	c #46B980",
"y 	c #43B97E",
"z 	c #42BC7E",
"A 	c #42BC7D",
"B 	c #45BB7F",
"C 	c #47B97F",
"D 	c #DB3F47",
"E 	c #F96157",
"F 	c #FC6B58",
"G 	c #FEA66E",
"H 	c #FEAB6E",
"I 	c #4CB680",
"J 	c #4FBB7B",
"K 	c #4DBC7C",
"L 	c #4EBC7B",
"M 	c #4FBC7C",
"N 	c #42BD7D",
"O 	c #120000",
"P 	c #EF6E62",
"Q 	c #FB6D59",
"R 	c #FEA770",
"S 	c #FFA970",
"T 	c #050000",
"U 	c #4CB781",
"V 	c #47BB7C",
"W 	c #C2EC97",
"X 	c #C8E996",
"Y 	c #C6EB94",
"Z 	c #C3EA96",
"` 	c #45BB7B",
" .	c #43BC7E",
"..	c #EF6F62",
"+.	c #FFA76F",
"@.	c #46B97F",
"#.	c #C5EB96",
"$.	c #D1EA93",
"%.	c #9C2633",
"&.	c #D2E892",
"*.	c #CFEB92",
"=.	c #C9E893",
"-.	c #48BF80",
";.	c #EF7063",
">.	c #FC6A57",
",.	c #CF3D48",
"'.	c #0C0000",
").	c #45BA7E",
"!.	c #4EBC7C",
"~.	c #C6EB96",
"{.	c #D2EA93",
"].	c #A22437",
"^.	c #D1E993",
"/.	c #D0EB92",
"(.	c #CAE992",
"_.	c #48BE80",
":.	c #EE7062",
"<.	c #FE6A58",
"[.	c #FFA870",
"}.	c #CF3E49",
"|.	c #000400",
"1.	c #4FB380",
"2.	c #41BD7C",
"3.	c #50BC7B",
"4.	c #C4EC95",
"5.	c #D2EA94",
"6.	c #962A30",
"7.	c #D1E992",
"8.	c #CBE991",
"9.	c #47BE80",
"0.	c #46B982",
"a.	c #F86A5A",
"b.	c #FD6A59",
"c.	c #FA7159",
"d.	c #090000",
"e.	c #4FB481",
"f.	c #42BB7E",
"g.	c #4FBC7B",
"h.	c #C2EB95",
"i.	c #CFEB93",
"j.	c #DAE599",
"k.	c #C8EA93",
"l.	c #46BE7F",
"m.	c #44BA7D",
"n.	c #F16E62",
"o.	c #FE6958",
"p.	c #FD6E59",
"q.	c #FF9E6D",
"r.	c #45B97E",
"s.	c #46BA7B",
"t.	c #CBEB97",
"u.	c #CCEA93",
"v.	c #CBE992",
"w.	c #C9E993",
"x.	c #44BA7A",
"y.	c #4BB881",
"z.	c #D83846",
"A.	c #FD6C59",
"B.	c #FFA66E",
"C.	c #45B97F",
"D.	c #41BC7D",
"E.	c #44BB7D",
"F.	c #44BB7E",
"G.	c #46BD7D",
"H.	c #47BD7E",
"I.	c #48BF7F",
"J.	c #42BD7F",
"K.	c #41BC7F",
"L.	c #D73947",
"M.	c #FEA96E",
"N.	c #4BB680",
"O.	c #0A0000",
"P.	c #080000",
"Q.	c #4BB780",
"R.	c #FB6A5B",
"S.	c #DB3846",
"T.	c #4CB681",
"U.	c #4DB780",
"V.	c #000300",
"W.	c #D33C4A",
"X.	c #D53A49",
"Y.	c #D43A49",
"Z.	c #D13C4B",
"`.	c #44BB7F",
" +	c #45BB80",
".+	c #F86A5C",
"++	c #D73A46",
"@+	c #53B382",
"#+	c #000100",
"$+	c #DA3846",
"%+	c #D83A45",
"&+	c #45BA81",
"*+	c #DA3945",
"=+	c #48B880",
"-+	c #CD3E4D",
";+	c #2D8468",
">+	c #F96B5D",
",+	c #DA3946",
"'+	c #46BA7D",
")+	c #51B481",
"!+	c #230000",
"~+	c #CE3E4A",
"{+	c #DE3644",
"]+	c #C9404D",
"^+	c #2E846B",
"/+	c #43BD7F",
"(+	c #45BA80",
"_+	c #0B0000",
":+	c #F16F63",
"<+	c #44BB80",
"[+	c #150000",
"}+	c #30846B",
"|+	c #2F846C",
"1+	c #43BC7F",
"2+	c #100000",
"3+	c #47B87D",
"4+	c #44BA7E",
"5+	c #48B980",
"6+	c #24896D",
"7+	c #2F846D",
"8+	c #F36E63",
"9+	c #FEA870",
"0+	c #D83946",
"a+	c #45BA7F",
"b+	c #4AB77F",
"c+	c #FC6A58",
"d+	c #FFA96E",
"e+	c #D93946",
"f+	c #D93945",
"g+	c #23896D",
"h+	c #0D0000",
"i+	c #F26F63",
"j+	c #42BB7F",
"k+	c #FC6B59",
"l+	c #FFA86E",
"m+	c #F07063",
"n+	c #FD6D5B",
"o+	c #30846D",
"p+	c #46B87E",
"q+	c #46BA7F",
"r+	c #F26E63",
"s+	c #FDA16B",
"t+	c #DB3845",
"u+	c #CC3F4A",
"v+	c #23896C",
"w+	c #2D856C",
"x+	c #EB7164",
"y+	c #FA7158",
"z+	c #FEA86F",
"A+	c #FFAA6C",
"B+	c #D33B49",
"C+	c #1B0000",
"D+	c #24886C",
"E+	c #218A6E",
"F+	c #2F836B",
"G+	c #44BA7F",
"H+	c #55B281",
"I+	c #F86B5E",
"J+	c #FE6A5A",
"K+	c #FEA06B",
"L+	c #FEAB6C",
"M+	c #2B856C",
"N+	c #228A6E",
"O+	c #25886E",
"P+	c #52B382",
"Q+	c #F86B5D",
"R+	c #DA3947",
"S+	c #25886B",
"T+	c #21896E",
"U+	c #25886D",
"V+	c #F6705D",
"W+	c #FEA36D",
"X+	c #070000",
"Y+	c #2B846B",
"Z+	c #29856A",
"`+	c #41BD7E",
" @	c #46B981",
".@	c #F7AB77",
"+@	c #D23D4B",
"@@	c #4CB581",
"#@	c #42BB7D",
"$@	c #51B480",
"%@	c #F8AC77",
"&@	c #D73B46",
"*@	c #4DB680",
"=@	c #FA6B5A",
"-@	c #EA7165",
";@	c #110000",
">@	c #F76F5E",
",@	c #FFA56F",
"'@	c #D83945",
")@	c #43BB7D",
"!@	c #43BA7D",
"~@	c #43BA7F",
"{@	c #42BC7F",
"]@	c #FB6A5A",
"^@	c #FB695A",
"/@	c #FE6C58",
"(@	c #FFA86F",
"_@	c #DE3A44",
":@	c #DF3C44",
"<@	c #D73A47",
"[@	c #43BC7D",
"}@	c #4FB581",
"|@	c #47B983",
"1@	c #EA7260",
"2@	c #DB3742",
"3@	c #FF685C",
"4@	c #FD665A",
"5@	c #F6665C",
"6@	c #4AB780",
"7@	c #F86A5E",
"8@	c #F26C60",
"9@	c #EF6D63",
"0@	c #F06E65",
"a@	c #F06E61",
"b@	c #46B97E",
"c@	c #54B382",
"d@	c #FC695A",
"e@	c #FF675D",
"f@	c #F96B5E",
"g@	c #4BB781",
"h@	c #43BC80",
"i@	c #46B97D",
"j@	c #F26D63",
"k@	c #FE6858",
"l@	c #FF6858",
"m@	c #F76B5A",
"n@	c #4EB680",
"o@	c #FA6A5C",
"p@	c #FF6957",
"q@	c #46B881",
"r@	c #46BA7E",
"s@	c #F36D63",
"t@	c #020000",
"u@	c #45B87E",
"v@	c #0F0000",
"w@	c #F07064",
"x@	c #FC695B",
"y@	c #F76B5C",
"z@	c #F66C60",
"A@	c #040000",
"B@	c #ED6F68",
"C@	c #DC3742",
"D@	c #F96A5C",
"E@	c #45B980",
"F@	c #F66C62",
"G@	c #53B181",
"H@	c #F76C61",
"I@	c #46BA80",
"J@	c #50B481",
"K@	c #FF695B",
"L@	c #F66C61",
"M@	c #FAAA72",
"N@	c #F46D61",
"O@	c #47BA7D",
"P@	c #FBAA74",
"Q@	c #FB6A5C",
"R@	c #4BB481",
"S@	c #5BAE83",
"T@	c #F66C5F",
"U@	c #53B381",
"V@	c #ECB081",
"W@	c #FF685D",
"X@	c #FC6A5C",
"Y@	c #E6726C",
"Z@	c #FD6A5A",
"`@	c #EC7164",
" #	c #57B180",
".#	c #FDA96F",
"+#	c #F16E63",
"@#	c #FCA96F",
"##	c #DD3742",
"$#	c #FE685B",
"%#	c #FC6A5A",
"&#	c #ED7063",
"*#	c #FD6A57",
"=#	c #F66C5C",
"-#	c #FCAA6F",
";#	c #DB3843",
">#	c #F46C61",
",#	c #F66E5C",
"'#	c #FFA971",
")#	c #FBA974",
"!#	c #55B27F",
"~#	c #FDA970",
"{#	c #FD695A",
"]#	c #F66C5D",
"^#	c #F56D60",
"/#	c #F56D5E",
"(#	c #FFA36C",
"_#	c #EFAE80",
":#	c #FCAA70",
"<#	c #FD705B",
"[#	c #FFA56E",
"}#	c #FFAB6F",
"|#	c #F5AC79",
"1#	c #FEAA6E",
"2#	c #FDA86D",
"3#	c #FDAA70",
"4#	c #FB7159",
"5#	c #FA7259",
"6#	c #FF9C6E",
"7#	c #FE695C",
"8#	c #FD6D5A",
"9#	c #FDA96E",
"0#	c #FCA36B",
"a#	c #FE6957",
"b#	c #FC715A",
"c#	c #FFA46F",
"d#	c #FEA76D",
"e#	c #FE6C5B",
"  . + + + + + + + + + + + + + + + + + + + + + + + + + + + + + + + + + + + + + + + + + + + + + + + + + + + + + + + + + + @ @ # $ ",
"+ + + + + + + + + + + + + + + + + + + + + + + + + + + + + + + + + + + + + + + + + + + + + + + + + +   . % % % % % % % @ & * $ = ",
"+ + + + + + + + + + + + + + + + + + + + + + + + + + + + + + + + + + + + + + + + + + + + + + + + - @ ; > , , , , , , , , , $ $ $ ",
"+ + + + + + + + + + + + + + + + + + + + + + + + + + + + + + + + + + + + + + + + + + + + + + ' ) ! ~ { $ , $ $ , $ , $ $ , $ $ $ ",
"+ + + + + + + + + + + + + + + + + + + + + + + + + + + + + + + + + + + + + + + + + + + + + ] ~ { $ $ $ $ $ $ $ $ $ $ $ $ $ $ , ^ ",
"+ + + + + + + + + + + + + + + + + + + + + + + + + + + + + + + + + + + + + + + + + + + + ] / ~ $ $ $ $ $ $ $ $ $ $ $ $ $ $ , ( _ ",
"+ + + + + + + + + + + + + + + + + + + + + + + + + + + + + + + + + + + + + + + + + + + ] : ~ $ $ $ $ $ $ $ $ $ $ $ $ $ $ , < [ } ",
"+ + + + + + + + + + + + + + + + + + + + + + + + + + + + + + % | 1 1 2 3 4 + + + + + 5 ! $ $ $ $ $ $ $ $ $ $ $ $ $ $ $ 6 7 _ } 8 ",
"+ + + + + + + + + + + + + + + + + + + + + + + + + + + + . 9 0 a b c a d e 9 f + + ] / # $ $ $ $ $ $ $ $ $ $ $ $ $ $ g h i 8 8 8 ",
"+ + + + + + + + + + + + + + + + + + + + + + + + + + + + 0 j k l m n n o k k p + q ! # * $ $ $ $ $ $ $ $ $ $ $ $ $ r s t u t t 8 ",
"+ + + + + + + + + + + + + + + + + + + + + + + + + + . v w x y z z A z z B C k D E { $ $ $ $ $ $ $ $ $ $ $ $ $ g F G 8 8 H 8 8 8 ",
"+ + + + + + + + + + + + + + + + + + + + + + + + + + v k I J K L M N z z z z x O P $ $ $ $ $ $ $ $ $ $ $ $ $ Q R S 8 8 8 8 8 8 8 ",
"+ + + + + + + + + + + + + + + + + + + + + + + + + 0 T U V W X Y Z `  .z z z m c ..$ $ $ $ $ $ $ $ $ $ $ $ , +.8 8 8 8 8 8 8 8 8 ",
"+ + + + + + + + + + + + + + + + + + + + + + + + 0 k @.L #.$.%.&.*.=.-.z z z n a ;.$ $ $ $ $ $ $ $ $ $ $ $ >.8 H 8 8 8 8 8 8 8 8 ",
"+ + + + + + + + + + + + + + + + + + + + + +   ,.'.).m !.~.{.].^./.(._.z z z @.O :.$ $ $ $ $ $ $ $ $ $ $ <.[.t 8 8 8 8 8 8 8 8 8 ",
"+ + + + + + + + + + + + + + + + + + + + + + }.|.1.n 2.3.4.5.6.7.*.8.9.z z 0.w a.b.$ $ $ $ $ $ $ $ $ $ 6 c.8 8 8 8 8 8 8 8 8 8 8 ",
"+ + + + + + + + + + + + + + + + + + + + + 0 d.e.).f.z g.h.i.j.*.*.k.l.z m.k n.o.$ $ $ $ $ $ $ $ $ $ $ p.q.8 8 8 8 8 8 8 8 8 8 8 ",
"+ + + + + + + + + + + + + + + + + + + + 0 k r.m z z z  .s.t.u.v.w.x.A y.k z.# $ $ $ $ $ $ $ $ $ $ $ $ A.B.8 8 8 8 8 8 8 8 8 8 8 ",
"+ + + + + + + + + + + + + + + + + + . v w C.D.A z E.F.F.F.E.G.H.I.J.K.y.k L.* $ $ $ $ $ $ $ $ $ $ $ $ o.M.8 8 8 8 8 8 8 8 8 8 8 ",
"+ + + + + + + + + + + + + + + + + + v k N.f.z z o T d.O.P.Q.A z z z z z r.k R.$ $ $ $ $ $ $ $ $ $ $ $ o.M.8 8 8 8 8 8 8 8 8 8 8 ",
"+ + + + + + + + + + + + + + + + + S.w T.m z z U.V.W.X.Y.Z.k @.`.z z z z  +k .+$ $ $ $ $ $ $ $ $ $ $ $ o.M.8 8 8 8 8 8 8 8 8 8 8 ",
"+ + + + + + + + + + + + + + + + % ++k F.z z z @+#+$+. . + %+k k &+z z z z ).k R.$ $ $ $ $ $ $ $ $ $ $ o.M.8 8 8 8 8 8 8 8 8 8 8 ",
"+ + + + + + + + + + + + + + + + *+k =+A A z m c -+% . + . 9 k ;+k m z z z F.k >+, $ $ $ $ $ $ $ $ $ $ o.M.8 8 8 8 8 8 8 8 8 8 8 ",
"+ + + + + + + + + + + + + + + + ,+k '+z z z )+!+~+{++ + % ]+k ^+k n z z z /+(+_+:+$ $ $ $ $ $ $ $ $ $ o.M.8 8 8 8 8 8 8 8 8 8 8 ",
"+ + + + + + + + + + + + + + + + ,+k '+z z <+k }.9 + + + *+[+}+|+k n z z F.1+`.2+:+$ $ $ $ $ $ $ $ $ $ >.M.8 8 8 8 8 8 8 8 8 8 8 ",
"+ + + + + + + + + + + + + + + + ,+k 3+4+4+5+k *++ + + + *+k 6+7+#+n z Q.k `.`.O.8+$ $ $ $ $ $ $ $ $ , 9+} 8 8 8 8 8 8 8 8 8 8 8 ",
"+ + + + + + + + + + + + + + + + + 0+k k k k L.+ + + + + *+k 6+|+#+a+z b+k f.`.2+;.$ $ $ $ $ $ $ $ o.c+d+8 8 8 8 8 8 8 8 8 8 8 8 ",
"+ + + + + + + + + + + + + + + + + + ,+e+f+*+4 + + + + + *+k g+|+#+a+z Q.k f.`.h+i+$ $ $ $ $ $ $ $ o.[.} 8 8 8 8 8 8 8 8 8 8 8 8 ",
"+ + + + + + + + + + + + + + + + + + + + + + + + + + + + *+k g+|+#+a+z Q.k j+`.'.:+$ $ $ $ $ $ $ { k+l+8 8 8 8 8 8 8 8 8 8 8 8 8 ",
"+ + + + + + + + + + + + + + + + + + + + + + + + + + + + *+k g+|+#+a+z Q.k a+F.2+m+$ $ $ $ $ $ $ n+_ t 8 8 8 8 8 8 8 8 8 8 8 8 8 ",
"+ + + + + + + + + + + + + + + + + + + + + + + + + + + + *+k g+o+#+a+z z p+k q+_+r+$ $ $ $ $ , 7 s+M.8 8 8 8 8 8 8 8 8 8 8 8 8 8 ",
"+ + + + + + + + + + + + + + + + + + + + + + + + + + + t+u+k v+w+#+a+z z F.k a+T x+$ $ $ $ $ y+z+A+t 8 8 8 8 8 8 8 8 8 8 8 8 8 8 ",
"+ + + + + + + + + + + + + + + + + + + + + + + + + + + B+C+D+E+F+k G+z z m k G+H+k I+J+$ $ n+K+L+8 8 8 8 8 8 8 8 8 8 8 8 8 8 8 8 ",
"+ + + + + + + + + + + + + + + + + + + + + + + + + . L.k M+N+O+k P+A z z m k F.z x k Q+$ n+_ d+8 8 8 8 8 8 8 8 8 8 8 8 8 8 8 8 8 ",
"+ + + + + + + + + + + + + + + + + + + + + + + + + R+k S+T+U+k @.m z z z m k a+z z q+k V+W+t } 8 8 8 8 8 8 8 8 8 8 8 8 8 8 8 8 8 ",
"+ + + + + + + + + + + + + + + + + + + + + + + + + S.X+Y+Z+k @.A `+z z z f.k k o m m  @k .@8 8 8 8 8 8 8 8 8 8 8 8 8 8 8 8 8 8 8 ",
"+ + + + + + + + + + + + + + + + + + + + + + + + + + +@#+k @@#@`+z z z z m k P k $@4+x k %@8 8 8 8 8 8 8 8 8 8 8 8 8 8 8 8 8 8 8 ",
"+ + + + + + + + + + + + + + + + + + + + + + + + + . &@k *@m z z z z z z m k =@-@;@k k >@,@8 8 8 8 8 8 8 8 8 8 8 8 8 8 8 8 8 8 8 ",
"+ + + + + + + + + + + + + + + + + + + + + + + + + '@k C.)@E.)@!@!@~@{@z m k ]@* ^@]@R./@(@8 8 8 8 8 8 8 8 8 8 8 8 8 8 8 8 8 8 8 ",
"+ + + + + + + + + + + + + + + + + + + ] @ @ _@:@<@k C.[@}@k O.a '.P.|@z m k 1@, $ , $ 6 t 8 8 8 8 8 8 8 8 8 8 8 8 8 8 8 8 8 8 8 ",
"+ + + + + + + + + + + + + + + + + @ 2@3@~ ~ 4@5@k 6@j+I k 7@8@9@0@a@k b@ .c@c d@$ $ $ 6 t 8 8 8 8 8 8 8 8 8 8 8 8 8 8 8 8 8 8 8 ",
"+ + + + + + + + + + + + + + + . ] e@~ ~ * { f@k g@h@i@k j@6 $ $ k@l@m@k n@ +k o@$ $ $ 6 t 8 8 8 8 8 8 8 8 8 8 8 8 8 8 8 8 8 8 8 ",
"+ + + + + + + + + + + + + + ] > $ l@p@$ $ 7@k q@E.r@k .+, $ $ $ $ $ o.s@t@B u@v@w@$ $ 6 t 8 8 8 8 8 8 8 8 8 8 8 8 8 8 8 8 8 8 8 ",
"+ + + + + + + + + + + + + @ # , $ $ $ $ x@k C z C.k y@o.= $ $ $ $ $ $ z@T B `.A@B@$ $ g t 8 8 8 8 8 8 8 8 8 8 8 8 8 8 8 8 8 8 8 ",
"+ + + + + + + + + + + + C@3@$ = $ $ $ $ D@k G+z E@k ]@$ $ $ $ $ $ $ $ F@T B z G@k I+F [.8 8 8 8 8 8 8 8 8 8 8 8 8 8 8 8 8 8 8 8 ",
"+ + + + + + + + + + + @ 3@# $ , $ $ $ H@j I@{@J@k D@K@$ $ $ $ $ $ $ $ L@T `.z z @.k M@H 8 8 8 8 8 8 8 8 8 8 8 8 8 8 8 8 8 8 8 8 ",
"+ + + + + + + + + + ] / = $ $ $ $ $ , N@t@4+z )+V.x@6 $ $ $ $ $ $ $ $ L@T G+z z z O@k P@8 8 8 8 8 8 8 8 8 8 8 8 8 8 8 8 8 8 8 8 ",
"+ + + + + + + + + 2@! = $ = $ $ $ $ Q@k R@j+f.S@k d@$ $ $ $ $ $ $ $ $ T@d U@z z z z C.k V@8 8 8 8 8 8 8 8 8 8 8 8 8 8 8 8 8 8 8 ",
"+ + + + + + + + @ W@~ $ $ $ $ $ $ $ X@k g@A `.P.Y@, $ $ $ $ $ $ $ $ $ Z@`@k `.z z z z  #k .#8 8 8 8 8 8 8 8 8 8 8 8 8 8 8 8 8 8 ",
"+ + + + + + + + . ! $ $ = $ $ $ $ $ X@k g@z <+c +#~ 6 $ $ $ $ $ $ $ $ $ x@k q+z z z z g@k @#8 8 8 8 8 8 8 8 8 8 8 8 8 8 8 8 8 8 ",
"+ + + + + + + + ##$#$ $ $ $ $ $ $ $ %#k *@F.I@O &## $ $ $ $ $ $ $ $ o., *#=#k @.m z z Q.k -#8 8 8 8 8 8 8 8 8 8 8 8 8 8 8 8 8 8 ",
"+ + + + + + + ;#3@~ 6 $ $ $ $ $ $ $ $ >#_+T k ,#g o.o.o.o.o.o.o.o.o.c+'#t t )#k !#z z Q.k ~#8 8 8 8 8 8 8 8 8 8 8 8 8 8 8 8 8 8 ",
"+ + + + + + + 2@! = $ $ $ $ $ $ $ $ $ {#]#^#/#(#d+d+d+d+d+d+d+d+d+d+d+8 8 8 8 _#k b@F.*@k :#8 8 8 8 8 8 8 8 8 8 8 8 8 8 8 8 8 8 ",
"+ + + + + + @ 3@$ = $ $ $ $ $ $ $ , , <#[#u u }#8 8 8 8 8 8 8 8 8 8 8 8 8 8 8 8 P@k k k |#1#8 8 8 8 8 8 8 8 8 8 8 8 8 8 8 8 8 8 ",
"+ + + + + + > $ $ $ $ $ $ $ $ $ , A._ 2#} 1#1#}#8 8 8 8 8 8 8 8 8 8 8 8 8 8 8 8 8 3#3#3#t 8 8 8 8 8 8 8 8 8 8 8 8 8 8 8 8 8 8 8 ",
"+ + + + + ] # = $ $ $ $ $ $ $ $ 4#_ t t 8 8 8 8 8 8 8 8 8 8 8 8 8 8 8 8 8 8 8 8 8 8 8 8 8 8 8 8 8 8 8 8 8 8 8 8 8 8 8 8 8 8 8 8 ",
"+ + + + C@! $ 6 $ $ $ $ $ $ $ 5#6#8 8 8 8 8 8 8 8 8 8 8 8 8 8 8 8 8 8 8 8 8 8 8 8 8 8 8 8 8 8 8 8 8 8 8 8 8 8 8 8 8 8 8 8 8 8 8 ",
"+ + + . 7#{ $ $ $ $ $ $ $ $ 8#9#8 8 8 8 8 8 8 8 8 8 8 8 8 8 8 8 8 8 8 8 8 8 8 8 8 8 8 8 8 8 8 8 8 8 8 8 8 8 8 8 8 8 8 8 8 8 8 8 ",
"+ + + @ ! , , $ $ $ $ $ $ n+0#_ 8 8 8 8 8 8 8 8 8 8 8 8 8 8 8 8 8 8 8 8 8 8 8 8 8 8 8 8 8 8 8 8 8 8 8 8 8 8 8 8 8 8 8 8 8 8 8 8 ",
"+ + . 7#$ $ $ $ $ $ $ $ a#[.d+8 8 8 8 8 8 8 8 8 8 8 8 8 8 8 8 8 8 8 8 8 8 8 8 8 8 8 8 8 8 8 8 8 8 8 8 8 8 8 8 8 8 8 8 8 8 8 8 8 ",
"+ ] : = $ $ $ $ $ $ $ $ *#M.8 8 8 8 8 8 8 8 8 8 8 8 8 8 8 8 8 8 8 8 8 8 8 8 8 8 8 8 8 8 8 8 8 8 8 8 8 8 8 8 8 8 8 8 8 8 8 8 8 8 ",
"] ~ $ $ $ $ $ $ $ $ $ b#c#u 8 8 8 8 8 8 8 8 8 8 8 8 8 8 8 8 8 8 8 8 8 8 8 8 8 8 8 8 8 8 8 8 8 8 8 8 8 8 8 8 8 8 8 8 8 8 8 8 8 8 ",
"$ $ $ $ $ $ $ $ $ $ >.d#8 8 8 8 8 8 8 8 8 8 8 8 8 8 8 8 8 8 8 8 8 8 8 8 8 8 8 8 8 8 8 8 8 8 8 8 8 8 8 8 8 8 8 8 8 8 8 8 8 8 8 8 ",
"= 6 $ $ $ $ $ $ $ e#[ 8 8 8 8 8 8 8 8 8 8 8 8 8 8 8 8 8 8 8 8 8 8 8 8 8 8 8 8 8 8 8 8 8 8 8 8 8 8 8 8 8 8 8 8 8 8 8 8 8 8 8 8 8 "};
