/* XPM */
static char * Glass_xpm[] = {
"64 64 652 2",
"  	c #7CFDFD",
". 	c #81F3F3",
"+ 	c #82F1F1",
"@ 	c #7BFDFD",
"# 	c #9AC6C6",
"$ 	c #9BC4C4",
"% 	c #8AE4E4",
"& 	c #8BEFF0",
"* 	c #8DEEF0",
"= 	c #8BEEF0",
"- 	c #8EEEF0",
"; 	c #8EEFF0",
"> 	c #8CEEF0",
", 	c #8FEFF0",
"' 	c #8FEEF0",
") 	c #90EFF0",
"! 	c #8CEFF0",
"~ 	c #8CEDF0",
"{ 	c #B3F6FD",
"] 	c #BEF4FF",
"^ 	c #BDF3FF",
"/ 	c #C0F4FF",
"( 	c #C2F5FF",
"_ 	c #C1F5FF",
": 	c #C0F5FF",
"< 	c #BFF4FF",
"[ 	c #C2F6FF",
"} 	c #C5F7FF",
"| 	c #C6F7FF",
"1 	c #C7F7FF",
"2 	c #C3F6FF",
"3 	c #C4F6FF",
"4 	c #C3F5FF",
"5 	c #BFF3FF",
"6 	c #C5F6FF",
"7 	c #C6F6FF",
"8 	c #CAF8FF",
"9 	c #CEF9FF",
"0 	c #CBF7FF",
"a 	c #C7F6FF",
"b 	c #CAF7FF",
"c 	c #CCF9FF",
"d 	c #CBF8FF",
"e 	c #C9F8FF",
"f 	c #C8F7FF",
"g 	c #CBF9FF",
"h 	c #CCFAFF",
"i 	c #CEFBFF",
"j 	c #CFFBFF",
"k 	c #CBFAFF",
"l 	c #C2F4FF",
"m 	c #BEF6FF",
"n 	c #C1F7FF",
"o 	c #C6F8FF",
"p 	c #C5F8FF",
"q 	c #BFF5FF",
"r 	c #BAF2FF",
"s 	c #B7F0FF",
"t 	c #B9F2FF",
"u 	c #C1F6FF",
"v 	c #B4F8FF",
"w 	c #9BC7C7",
"x 	c #C3F5FD",
"y 	c #D0F2FF",
"z 	c #CEF1FF",
"A 	c #D2F3FF",
"B 	c #D3F3FF",
"C 	c #D1F2FF",
"D 	c #D6F5FF",
"E 	c #D8F6FF",
"F 	c #DCF7FF",
"G 	c #D8F5FF",
"H 	c #D5F3FF",
"I 	c #D6F4FF",
"J 	c #DAF6FF",
"K 	c #DAF7FF",
"L 	c #D7F4FF",
"M 	c #D2F2FF",
"N 	c #CFF1FF",
"O 	c #D5F4FF",
"P 	c #D7F5FF",
"Q 	c #DDF7FF",
"R 	c #E1F8FF",
"S 	c #DFF7FF",
"T 	c #DAF4FF",
"U 	c #D9F4FF",
"V 	c #DDF6FF",
"W 	c #DFF8FF",
"X 	c #DDF8FF",
"Y 	c #E1FAFF",
"Z 	c #E3FAFF",
"` 	c #E2FAFF",
" .	c #D1F1FF",
"..	c #D1F3FF",
"+.	c #CEF2FF",
"@.	c #CFF2FF",
"#.	c #D3F4FF",
"$.	c #CAF0FF",
"%.	c #C4ECFE",
"&.	c #C5ECFF",
"*.	c #C2F7FF",
"=.	c #C4F7FF",
"-.	c #D0F1FF",
";.	c #D4F3FF",
">.	c #DCF6FF",
",.	c #DEF7FF",
"'.	c #D9F5FF",
").	c #DBF6FF",
"!.	c #D8F4FF",
"~.	c #DBF5FF",
"{.	c #DFF6FF",
"].	c #E1F7FF",
"^.	c #DCF5FF",
"/.	c #D9F3FF",
"(.	c #E0F8FF",
"_.	c #E4FAFF",
":.	c #E1F9FF",
"<.	c #D3F2FF",
"[.	c #CBEFFF",
"}.	c #C7ECFE",
"|.	c #C6ECFE",
"1.	c #CEF0FF",
"2.	c #D3F1FF",
"3.	c #D2F1FF",
"4.	c #D5F2FF",
"5.	c #D7F3FF",
"6.	c #D6F3FF",
"7.	c #D6F2FF",
"8.	c #D5F2FE",
"9.	c #D9F6FF",
"0.	c #E3F9FF",
"a.	c #DEF6FF",
"b.	c #D7F6FF",
"c.	c #CCEFFF",
"d.	c #CAEEFF",
"e.	c #C8EDFE",
"f.	c #C9EEFF",
"g.	c #BDF4FF",
"h.	c #D0F0FF",
"i.	c #E0F7FF",
"j.	c #CFF0FF",
"k.	c #DAF5FF",
"l.	c #D4F2FF",
"m.	c #D0F1FE",
"n.	c #D2F4FF",
"o.	c #C7EDFE",
"p.	c #BCF3FF",
"q.	c #CDF1FF",
"r.	c #CAEFFF",
"s.	c #D0F3FF",
"t.	c #D4F4FF",
"u.	c #D6F6FF",
"v.	c #CDF0FF",
"w.	c #CAEEFE",
"x.	c #D4F5FF",
"y.	c #CCF1FF",
"z.	c #C6EEFF",
"A.	c #C8EFFF",
"B.	c #CCF0FF",
"C.	c #C9EFFF",
"D.	c #CDF2FF",
"E.	c #CBEEFF",
"F.	c #DCF4FF",
"G.	c #D3F5FF",
"H.	c #C3EDFF",
"I.	c #C1ECFF",
"J.	c #C7F0FF",
"K.	c #CDF3FF",
"L.	c #BEEAFF",
"M.	c #C7EEFF",
"N.	c #CBF1FF",
"O.	c #C5EEFE",
"P.	c #C9F1FF",
"Q.	c #D0F4FF",
"R.	c #CEEFFF",
"S.	c #BDF2FF",
"T.	c #8DEFF0",
"U.	c #DDF5FF",
"V.	c #BCEAFF",
"W.	c #C1EDFF",
"X.	c #C8F1FF",
"Y.	c #C4EEFF",
"Z.	c #B6E7FF",
"`.	c #C0ECFF",
" +	c #CAF2FF",
".+	c #C6EFFF",
"++	c #C0EDFF",
"@+	c #C2EDFF",
"#+	c #C5EFFF",
"$+	c #CAF1FF",
"%+	c #CFEFFF",
"&+	c #C7F8FF",
"*+	c #C7EDFF",
"=+	c #C1EBFF",
"-+	c #C7EFFF",
";+	c #BBEBFF",
">+	c #B9EAFF",
",+	c #BFECFF",
"'+	c #B8E8FF",
")+	c #BAEAFF",
"!+	c #BFEDFF",
"~+	c #C3F0FF",
"{+	c #C6F1FF",
"]+	c #C2F0FF",
"^+	c #BDEDFF",
"/+	c #BBECFF",
"(+	c #CBF2FF",
"_+	c #C8F0FF",
":+	c #C2EBFF",
"<+	c #C8EEFF",
"[+	c #D5F5FF",
"}+	c #C8F8FF",
"|+	c #DBF7FF",
"1+	c #D5F1FF",
"2+	c #DBF4FF",
"3+	c #C6EDFF",
"4+	c #BDEAFF",
"5+	c #C2EEFF",
"6+	c #B4E7FF",
"7+	c #B4E8FF",
"8+	c #B9E9FF",
"9+	c #ABE1FF",
"0+	c #AEE4FF",
"a+	c #B2E8FF",
"b+	c #BAECFF",
"c+	c #C2F1FF",
"d+	c #C4F1FF",
"e+	c #BEEEFF",
"f+	c #B8EBFF",
"g+	c #C0EBFF",
"h+	c #D6F1FF",
"i+	c #BEEBFF",
"j+	c #BAE9FF",
"k+	c #B8EAFF",
"l+	c #B1E6FF",
"m+	c #ABE3FF",
"n+	c #B0E5FF",
"o+	c #A7E0FF",
"p+	c #AAE3FF",
"q+	c #AAE5FF",
"r+	c #AFE8FF",
"s+	c #BAEDFF",
"t+	c #BEF0FF",
"u+	c #BCEFFF",
"v+	c #B8ECFF",
"w+	c #AEE5FF",
"x+	c #C1EEFF",
"y+	c #BCEBFF",
"z+	c #BAE8FE",
"A+	c #C4EDFF",
"B+	c #CAF9FF",
"C+	c #C4ECFF",
"D+	c #D2F0FF",
"E+	c #B3E6FF",
"F+	c #B3E7FF",
"G+	c #B5E8FF",
"H+	c #B1E5FF",
"I+	c #A8E1FF",
"J+	c #B5E9FF",
"K+	c #A7E2FF",
"L+	c #A9E5FF",
"M+	c #A6E5FF",
"N+	c #ADE8FF",
"O+	c #B3ECFF",
"P+	c #B4EDFF",
"Q+	c #A2E2FE",
"R+	c #ABE6FF",
"S+	c #B5EBFF",
"T+	c #B9ECFF",
"U+	c #B3E8FF",
"V+	c #B4E7FE",
"W+	c #D5F7FF",
"X+	c #C5EDFF",
"Y+	c #BAE7FF",
"Z+	c #B8E6FF",
"`+	c #B2E5FF",
" @	c #AFE3FF",
".@	c #ADE3FF",
"+@	c #A9E3FF",
"@@	c #A8E3FF",
"#@	c #A9E4FF",
"$@	c #9BDEFF",
"%@	c #8FD9FF",
"&@	c #90DAFF",
"*@	c #9EE3FF",
"=@	c #AFECFF",
"-@	c #B3EFFF",
";@	c #B1EEFF",
">@	c #9BE3FF",
",@	c #9DE3FF",
"'@	c #AEEBFF",
")@	c #B5EEFF",
"!@	c #ABE8FF",
"~@	c #BBEEFF",
"{@	c #CEF5FF",
"]@	c #C9F7FF",
"^@	c #CFF3FF",
"/@	c #C9F0FF",
"(@	c #BDE8FF",
"_@	c #B8E7FF",
":@	c #AEE3FF",
"<@	c #A9E2FF",
"[@	c #A7E3FF",
"}@	c #A6E3FF",
"|@	c #A3E3FF",
"1@	c #A4E4FF",
"2@	c #99E0FF",
"3@	c #92DBFF",
"4@	c #8CD9FF",
"5@	c #94DEFF",
"6@	c #A1E7FF",
"7@	c #ADEDFF",
"8@	c #B3F0FF",
"9@	c #99E4FF",
"0@	c #92E0FE",
"a@	c #98E2FF",
"b@	c #A8EAFF",
"c@	c #AAEAFF",
"d@	c #A2E5FF",
"e@	c #ADE9FF",
"f@	c #C3F1FF",
"g@	c #D4F6FF",
"h@	c #E2F9FF",
"i@	c #C3ECFF",
"j@	c #BAE8FF",
"k@	c #AFE4FF",
"l@	c #A4E2FF",
"m@	c #A2E3FF",
"n@	c #A1E2FF",
"o@	c #9CE2FF",
"p@	c #96DEFF",
"q@	c #8BD9FF",
"r@	c #87D7FE",
"s@	c #90DFFF",
"t@	c #A3E9FF",
"u@	c #B2F0FF",
"v@	c #A9ECFF",
"w@	c #97E3FF",
"x@	c #87DAFD",
"y@	c #9CE4FF",
"z@	c #B0EDFF",
"A@	c #A6E7FF",
"B@	c #A2E4FF",
"C@	c #B9EDFF",
"D@	c #D1F5FF",
"E@	c #C5EEFF",
"F@	c #AFE6FF",
"G@	c #A6E2FF",
"H@	c #A3E2FF",
"I@	c #A0E2FF",
"J@	c #A0E1FF",
"K@	c #98DFFF",
"L@	c #8EDAFF",
"M@	c #86D6FE",
"N@	c #88DAFF",
"O@	c #B8F2FF",
"P@	c #A7EBFF",
"Q@	c #86D9FE",
"R@	c #8BDCFE",
"S@	c #ADECFF",
"T@	c #AAE7FF",
"U@	c #CDF9FF",
"V@	c #C3EEFF",
"W@	c #C3EFFF",
"X@	c #BAEBFF",
"Y@	c #B6E9FF",
"Z@	c #B1E7FF",
"`@	c #ADE7FF",
" #	c #A8E4FF",
".#	c #9EE1FF",
"+#	c #A1E3FF",
"@#	c #9BE1FF",
"##	c #92DDFF",
"$#	c #88DBFF",
"%#	c #90E1FF",
"&#	c #98E5FF",
"*#	c #B3F1FF",
"=#	c #8FDEFE",
"-#	c #7DD3FC",
";#	c #A1E6FF",
">#	c #AEECFF",
",#	c #A1E5FF",
"'#	c #81F1F1",
")#	c #CEFAFF",
"!#	c #CBF0FF",
"~#	c #B9E8FF",
"{#	c #BDECFF",
"]#	c #BEECFF",
"^#	c #B8E9FF",
"/#	c #B5EAFF",
"(#	c #B4EAFF",
"_#	c #B0E8FF",
":#	c #ABE7FF",
"<#	c #A6E4FF",
"[#	c #A1E1FF",
"}#	c #A9E7FF",
"|#	c #A4E5FF",
"1#	c #99E1FF",
"2#	c #92DEFF",
"3#	c #8CDCFF",
"4#	c #8BDCFF",
"5#	c #8CDEFF",
"6#	c #A2E8FF",
"7#	c #86D7FD",
"8#	c #98E1FF",
"9#	c #AEEAFF",
"0#	c #B5E7FF",
"a#	c #D0FAFF",
"b#	c #B6E8FF",
"c#	c #B6EAFF",
"d#	c #B3EBFF",
"e#	c #A8E5FF",
"f#	c #B0EAFF",
"g#	c #A8E7FF",
"h#	c #A0E3FF",
"i#	c #96DFFF",
"j#	c #8EDBFF",
"k#	c #8ADBFE",
"l#	c #8ADCFE",
"m#	c #B6F0FF",
"n#	c #9EE4FF",
"o#	c #97DFFE",
"p#	c #A8E8FF",
"q#	c #B1ECFF",
"r#	c #B2EAFF",
"s#	c #AFE3FE",
"t#	c #BFE9FF",
"u#	c #CFFAFF",
"v#	c #E4F9FF",
"w#	c #BBEDFF",
"x#	c #AFE7FF",
"y#	c #B6EBFF",
"z#	c #B1EAFF",
"A#	c #AAE6FF",
"B#	c #A4E3FF",
"C#	c #B4EBFF",
"D#	c #B4ECFF",
"E#	c #AFEAFF",
"F#	c #8BD9FE",
"G#	c #8ADAFE",
"H#	c #8FDCFE",
"I#	c #99E3FF",
"J#	c #94DCFE",
"K#	c #99DFFE",
"L#	c #AAE8FF",
"M#	c #B1E8FF",
"N#	c #BFEAFF",
"O#	c #D1F0FF",
"P#	c #B0E4FF",
"Q#	c #BDEFFF",
"R#	c #A8E5FE",
"S#	c #B8EDFF",
"T#	c #9EE2FF",
"U#	c #97DFFF",
"V#	c #8FD9FE",
"W#	c #8AD8FD",
"X#	c #C4F4FF",
"Y#	c #B8EFFF",
"Z#	c #A0E0FE",
"`#	c #BAE7FE",
" $	c #C3EBFF",
".$	c #AEE3FE",
"+$	c #BDEEFF",
"@$	c #C0EFFF",
"#$	c #BFEFFF",
"$$	c #AEE6FF",
"%$	c #AEE7FF",
"&$	c #A7E4FF",
"*$	c #98DDFE",
"=$	c #97DDFE",
"-$	c #C4F2FF",
";$	c #B3EAFF",
">$	c #A4E1FE",
",$	c #ABE5FE",
"'$	c #BCE9FF",
")$	c #BBE8FF",
"!$	c #BDEBFF",
"~$	c #B3E5FE",
"{$	c #AFE5FE",
"]$	c #BFEEFF",
"^$	c #B3E9FF",
"/$	c #C4F0FF",
"($	c #C7F1FF",
"_$	c #C6F0FF",
":$	c #C4EFFF",
"<$	c #BCEDFF",
"[$	c #B9EBFF",
"}$	c #A4E1FF",
"|$	c #CBF5FF",
"1$	c #B0E4FE",
"2$	c #ADE3FE",
"3$	c #CDEFFF",
"4$	c #C6F2FF",
"5$	c #BBEAFF",
"6$	c #A4DFFE",
"7$	c #CFF4FF",
"8$	c #BFEBFF",
"9$	c #B6E5FE",
"0$	c #C1F4FF",
"a$	c #BAEAFE",
"b$	c #B5E8FE",
"c$	c #CAF3FF",
"d$	c #C2EFFF",
"e$	c #C2ECFF",
"f$	c #C5EBFF",
"g$	c #BCE7FE",
"h$	c #C2ECFE",
"i$	c #B9E9FE",
"j$	c #B2E3FF",
"k$	c #B9E7FF",
"l$	c #C0EAFF",
"m$	c #C1E8FE",
"n$	c #E5F9FF",
"o$	c #E2F8FF",
"p$	c #CCF3FF",
"q$	c #CCF2FF",
"r$	c #BEE9FF",
"s$	c #C8EDFF",
"t$	c #BCE8FF",
"u$	c #C1EAFF",
"v$	c #C6ECFF",
"w$	c #D4F1FF",
"x$	c #E6FAFF",
"y$	c #E7FAFF",
"z$	c #BFE8FE",
"A$	c #C7ECFF",
"B$	c #C4EBFF",
"C$	c #C9EDFF",
"D$	c #D1F4FF",
"E$	c #D0EFFF",
"F$	c #CCF8FF",
"G$	c #E2F7FF",
"H$	c #E3F8FF",
"I$	c #E4F8FF",
"J$	c #ECFCFF",
"K$	c #EAFBFF",
"L$	c #CEEEFF",
"M$	c #B9E6FD",
"N$	c #E0F6FF",
"O$	c #E8FBFF",
"P$	c #E5FAFF",
"Q$	c #D1EFFF",
"R$	c #C1EAFE",
"S$	c #D9F7FF",
"T$	c #C2F4FE",
"U$	c #BEF3FE",
"V$	c #BDF5FF",
"W$	c #BEF5FF",
"X$	c #BBF3FF",
"Y$	c #BBF4FF",
"Z$	c #C5F0FF",
"`$	c #B6F3FF",
" %	c #B9F4FF",
".%	c #8BEDF0",
"+%	c #B4F3FF",
"@%	c #ABEEFF",
"#%	c #89EDF0",
"$%	c #ADF0FF",
"%%	c #C0F1FF",
"&%	c #88ECF0",
"*%	c #A4ECFF",
"=%	c #A5EBFF",
"-%	c #9DEAFF",
";%	c #ACE8FF",
">%	c #CFF0FE",
",%	c #A5EAFF",
"'%	c #87ECF0",
")%	c #85EBF0",
"!%	c #8BE1FF",
"~%	c #88E1FF",
"{%	c #93DEFF",
"]%	c #9FE8FF",
"^%	c #86EBF0",
"/%	c #86D7FE",
"(%	c #86ECF0",
"_%	c #8AE1FF",
":%	c #85D6FE",
"<%	c #E1F6FF",
"[%	c #8DE4FF",
"}%	c #8AD9FF",
"|%	c #DEF5FF",
"1%	c #DDF4FF",
"2%	c #DEF4FF",
"3%	c #E6F8FF",
"4%	c #E9FAFF",
"5%	c #A2EBFF",
"6%	c #93E7FF",
"7%	c #91DEFF",
"8%	c #DFF5FF",
"9%	c #DCF3FF",
"0%	c #E2F6FF",
"a%	c #E7F9FF",
"b%	c #88EDF0",
"c%	c #86EDF0",
"d%	c #97E8FF",
"e%	c #95DFFF",
"f%	c #DDF3FF",
"g%	c #A6EFFF",
"h%	c #87EDF0",
"i%	c #9AEAFF",
"j%	c #95DEFF",
"k%	c #E3F7FF",
"l%	c #E0F5FF",
"m%	c #D9F0FE",
"n%	c #E6F9FF",
"o%	c #AAEFFF",
"p%	c #8AEDF0",
"q%	c #A5EEFF",
"r%	c #A3E5FF",
"s%	c #DAF2FF",
"t%	c #DAF3FF",
"u%	c #ADF1FF",
"v%	c #8AEEF0",
"w%	c #A8EFFF",
"x%	c #DFF4FF",
"y%	c #DBF3FF",
"z%	c #B0F2FF",
"A%	c #AEF0FF",
"B%	c #B4F2FF",
"C%	c #89EEF0",
"D%	c #A8F3FD",
"E%	c #B5F3FF",
"F%	c #B4F1FF",
"G%	c #AFEFFF",
"H%	c #ACEDFF",
"I%	c #A3E8FE",
"J%	c #ABECFF",
"K%	c #B8F3FF",
"L%	c #BFF6FF",
"M%	c #B5EFFF",
"N%	c #AEEBFE",
"O%	c #B5F1FF",
"P%	c #B6F2FF",
"Q%	c #B2EFFE",
"R%	c #B6F1FF",
"S%	c #C0F6FF",
"T%	c #C5F5FF",
"U%	c #C4F5FF",
"V%	c #BBF2FF",
"W%	c #B9F1FF",
"X%	c #BCF4FF",
"Y%	c #ACEEFE",
"Z%	c #A8ECFE",
"`%	c #ACEFFF",
" &	c #B0F1FF",
".&	c #B9F5FF",
"+&	c #B2F2FF",
"@&	c #AEEFFF",
"#&	c #A7F3FF",
"$&	c #89ECF0",
"%&	c #88EEF0",
"&&	c #9AC7C7",
"  . + + + + + + + + + + + + + + + + + + + + + + + + + + + + + + + + + + + + + + + + + + + + + + + + + + + + + + + + + + + + . @ ",
". # $ # # # # # # # # # # # # # # # # # # # # # # # # # # # # # # # # # # # # # # # # # # # # # # # # # # # # # # # # # # $ # . ",
"+ $ % & * * = * - * * * * - - ; - > - - , - - * - - ' - ' , ) , ' ' , ) ; , , , ) ) ) ) , - - - * * > ! ; - * > ~ > * - & % $ + ",
"+ # ! { ] ^ ^ / ( _ : < < [ } | 1 2 ( 3 1 1 4 5 ( 6 1 6 7 8 9 0 a a b c c d e f g h i j k | l 5 < ] m n o p q r r s t u v ! w + ",
"+ # ; x y z z A A B A C y A D E F G H I J K L M N O G P L Q R S T U U V W W F J K X Y Z ` Q L  ...+.@.#.E E #.+.$.%.&.@.*.* w + ",
"+ # ; =.A -.-.M C ;.H ;.M ;.G >.,.>.T I '.>.).L  .H !.!.U ~.{.].^.U /.T Q W >.!.'.>.(.Z _.:.^.<.B C C ;.P E D O [.}.|.1.u * w + ",
"+ # - } ;.2.3.3.3.4.L H 4.H '.F S S >.5.6.J F ).M <.;.I I H L V ~.T 7.8.'.,.F P L 9.V (.0.0.a.4.M A ....B O P b.c.d.e.f.g.- w + ",
"+ # - 6 O 4.3.h. .H L L H H '.,.S i.V 6.4.'.F F B j.y H H j. .9.k.U l.m.I F F G H G J >.R Z S 4.M A n.y y A D 9.c.1.d.o.p.; w + ",
"+ # - 2 M <.H I L M H J J O H ).S i.S k.4.<.I 9.O q.r.z s.1.-.O '.t.;.B ..t.u.b.A C l.'.W :.S ).-.y C C A O O P E v.}.w.p.* w + ",
"+ # - =.B 4.l.H I ;.H P G P O L a.i.i.k.H -.B O x.y.z.A.q.+.B.C.y y A s.q.D.#.u...z j.O F ,.Q >.M C y y y B O D E C E.E.^ * w + ",
"+ # , | L 6.l.l.I I H <.O 9.G H F.{.].>.4.j.1.z G.y.H.I.J.K.C.L.M.N.s.D.J.O.P.Q.Q.$.f.-.'.).>.).H ;.M -.m.M O L G I <.R.S.* w + ",
"+ # T.| G L <. .H L H h.M J 9.;.U U.i.V 6.j.f.M.s.P.H.V.W.X.Y.Z.`.z. + +.+++@+#+K.$+M.A.C 9.J 9.O O A -.m.C ;.O O 9.L %+S.* w + ",
"+ # T.&+J !.l. .;.I ;.1.-.G 9.O 7.F.{.>.I j.*+=+-+J.Y.;+>+++,+Z.'+)+!+~+{+]+^+/+#+(+_+:+<+[+J G D O A y m.C B O ;.'.G h.S.* w + ",
"+ # , }+|+).I M M ;.B -.j.A O G 1+/.2+k.I -.3+4+`.5+5+)+6+7+8+)+9+0+a+b+c+d+e+f+>+{+J.V.g+@.b.D P t.A A A A B B ;.L L M ^ * w + ",
"+ # , e X Q '.H M M ;.A v.r.y 9.1+h+7.6.O -.M.i+j+k+;+>+l+m+n+k+o+p+q+r+s+t+u+v+w+b+x+y+z+A+s.u.D #...#.t.#.A M O O O O < * w + ",
"+ # , B+W W >.O <.y ;.#.v.C+[.9.2.D+D+<.A @.M.g+Z.E+F+G+H+I+p+J+K+q+L+M+N+O+P+O+Q+R+S+T+U+V+.+W+t.A y t.O #.A C P B O P _ > w + ",
"+ # , 8 (.:.Q D -.-...#.@.M.<+q.A v.r.q.+.N.M.X+Y+Z+`+ @.@+@@@#@L+$@%@&@*@=@-@;@>@,@'@)@!@L+~@{@x.B A B H O O ..#.[+P P u * w + ",
"+ # , ]@W Z W P C q.z ^@q.-+3+z.D./@-+-+_+-+3+&.(@_@`+:@<@[@}@|@1@2@3@4@5@6@7@8@9@0@a@b@c@d@e@f@g@O B M H G P t.t.O O I [ - w + ",
"+ # , ]@,._.h@9.B B.C.y.z $.&.g+-+-+-+.+z.z.X+i@L.j@E+k@<@[@l@m@n@o@p@q@r@s@t@u@v@w@x@y@z@A@B@C@D@t.A -.3.I !.O H O H O 2 - w + ",
"+ # ) b ).h@Z X D z M.$.s.q.X+L.i@#+-+#+Y.E@H.`.`.)+7+F@+@G@H@I@n@J@K@L@M@N@9@v@O@P@Q@R@S@c@o@T@P.A B -.h.l.!.!.I O H H 6 - w + ",
"+ # ) U@^.S R (.9.y <+r.@.z *+L.4+`.V@W@V@V@,+;+i+X@Y@Z@`@ #H@.#1@+#@###q@$#%#&#*#u@=#-#;#>#,#Q+I.-.O ;. .<.!.>.'.I 6.6.} ; w + ",
"'## ) )#V ^.Q :.9.A [.<+!#!#M.I.~#)+;+{#!+]#y+^#X@)+/#(#_#:#<#[#}#|#+#1#2#3#4#5#v@O@6#7#8#>#9#L+0#*+;.I M  .6.>.~.k.U !.6 ; w + ",
"'## , a#R ^.~.W ).O j.C.f.C.r.A.4+b#F+7+>+/+X@c#U+(#f+v+d#r+e#m@f#e@g#h#i#j#k#l#6#O@m#n#o#p#q#r#s#t#z O A R.2.'.>.>.~.T 7 - w + ",
"+ # ' u#v#^.U ,.>.P C [.f.r.v.+.@+Y@k@n+Y@/+^+w#x#a+y#s+v+z#A#B#C#D#E#|#p@F#G#H#I#;@/ =@J#K#L#M#`+N#1.D O 1.O#U V V >.T 6 - w + ",
"+ # - d 0.0.V U ).L  .[.<+f.[.!##+>+P#m+U+b+^+w#a+y#T+v+~@Q#v+R#L+r#S#f#|#T#U#V#W#=@X#Y#B#Z#R+f+j+`# $#.9.B O#l.U >.>.T 6 - w + ",
"+ # - f (.R S '.>.I M [.d.C.[.$.$+++6+.$l+y#+$@$y#S+C#T+#$~+e+/#$$f+s+C#%$&$.#*$=$}#t+-$;$>$,${#'$)$:+q.O ;.3.3.L ~.V V 7 - w + ",
"+ # - 6 ).(.S >.>.G l.j.E.[.c.!#Q./@!$~${$7+]${+]$f+^$/+/$($_$:$6+y+]$<$[$r#R+l@l@}$f+|$($1$2$`.i+g+:+z.N t.H -.l.U S S | - w + ",
"+ # - l L S R W >.'.H -.3$r.[.B.t.+.M.V.~$U+^+d+4$/+7+;+:$J.X.(+5$]#W.5+]${#/#Z@m+6$7+7$D@8$9$L.@+Y.@+ $r.O I -.h.6.V S 1 - w + ",
"+ # - 0$H >.R :.,.>.!.3.3$d.r.r.....+.E@a$b$X@]$c$d$X@y+W.M.$.+.C+e$i@E@J.Y.i+j+:@s#~#/@n.z f$g$z./@-+h$M.#.I -.-.;.'.V 1 - w + ",
"+ # - 4 H k.i.v#i.{.T 4.R.E.d.c.-.n.n.D.@+)+i$X@($X.V@!$N#M.v.z z M.C+-+N.J.H.g+j$k$l$3+y L j.m$-+N.$+M.A.@.B ..<.;.5.'.1 ; w + ",
"+ # - } O T i.n$0.o$V L j.E.[.v.N #.D n./@,+)+)+V@p$q$=+r$f.C j.P 1.s$[.z N.M.M.t$u$:+v$-.G 7.E.-+$+K.K.N.!#@.#.A A w$6.]@, w + ",
"+ # , | !.^.].x$y$n$R k. .R.3$-.-.t.b.[+D.A+!$V.,+Q.G.C+z$c.;.-.F M f.3$y z c.r.A$f$B$C$-.I L ;.C.y.D$n.@.r.1.t.h.-.E$2.}+) w + ",
"+ # , F$i.G$H$I$J$K$x$R !.L$E$I N #.E K b.^@-+i@M$y.u.A f.r.N C 9.O -.1.-.y -.[.R.E.C$C$v.A L 9.B y M I L M  .H 6.L !.U | , w + ",
"+ # ) 9 i.N$a.S O$O$P$0.'.D+Q$H -.n.P 9.E A r.v$R$v.O A [.d.c.N E O C y y -.j.1.-.1.c.c.N B P 9.I 3.2.!.U 6.w$l.U U U U 1 , w + ",
"+ # , U@R {.V >._.P$x$P$,.6.2.<.-.s.O E S$D N <+*+r.y #.y r.f.v.D I O <.-.-.-. .;.M  .-.M O '.J '.H l.!.).U 4.D+U T ~.T | , w + ",
"+ # , c R ].,.V R h@P$x$:.J 4.3.C y n.u.|+S$A [.[.*+r.t.O z r.j.O I 9.I C j.-.<.H ;.B M M O 9.J >.!.H !.>.>.5.D+H U ^.U 6 , w + ",
"+ # ' b W R ,.>.F W Z P$_.S U 2.B y C O J J O y B.|.A$C P B j.y B I 9.G <.-.-.;.;.H ;.<.M ;.G J ,.k.5.!.>.F U l. .L k.'.6 , w + ",
"+ # - 7 |+W >.!.'.>.(.Z _.:.^.<.B C C ;.P E D O [.}.|.1.O I B A C O 9.G ;.-.-.M C ;.H ;.M ;.G >.,.>.T I '.>.).L  .H !.!.6 - w + ",
"+ # - T$P ,.F P L 9.V (.0.0.a.4.M A ....B O P b.c.d.e.f.y P D C C H U '.6.2.3.3.3.4.L H 4.H '.F S S >.5.6.J F ).M <.;.I [ * w + ",
"+ # - U$t.F F G H G J >.R Z S 4.M A n.y y A D 9.c.1.d.o.1.b.P C <.H !.U L 4.3.h. .H L L H H '.,.S i.V 6.4.'.F F B j.y H _ > w + ",
"+ # - : ^@t.u.b.A C l.'.W :.S ).-.y C C A O O P E v.}.w.1.h.M 9.L !.!.I l.<.H I L M H J J O H ).S i.S k.4.<.I 9.O q.r.z V$> w + ",
"+ # * W$N.D.#.u...z j.O F ,.Q >.M C y y y B O D E C E.E.N C O 9.!.'.'.G H 4.l.H I ;.H P G P O L a.i.i.k.H -.B O x.y.z.A.X$> w + ",
"+ # * Y$Z$O.P.Q.Q.$.f.-.'.).>.).H ;.M -.m.M O L G I <.R.E$H '.'.U k.>.).U 6.l.l.I I H <.O 9.G H F.{.].>.4.j.1.z G.y.H.I.`$> w + ",
"+ # >  %:$++@+#+K.$+M.A.C 9.J 9.O O A -.m.C ;.O O 9.L %+%+6.k.!.'.k.>.>.k.L <. .H L H h.M J 9.;.U U.i.V 6.j.f.M.s.P.H.V.u@> w + ",
"+ # .%+%d+]+^+/+#+(+_+:+<+[+J G D O A y m.C B O ;.'.G h.%+H U !.'.k.>.Q >.!.l. .;.I ;.1.-.G 9.O 7.F.{.>.I j.*+=+-+J.Y.;+@%.%w + ",
"+ # #%$%%%d+e+f+>+{+J.V.g+@.b.D P t.A A A A B B ;.L L M h.3.L J ).).>.Q Q ).I M M ;.B -.j.A O G 1+/.2+k.I -.3+4+`.5+5+)+P@#%w + ",
"+ # &%*%C@t+u+v+w+b+x+y+z+A+s.u.D #...#.t.#.A M O O O O M h.H ,.Q >.>.,.W Q '.H M M ;.A v.r.y 9.1+h+7.6.O -.M.i+j+k+;+>+=%&%w + ",
"+ # &%-%;%O+P+O+Q+R+S+T+U+V+.+W+t.A y t.O #.A C P B O P H >%H R W ,.S W R W >.O <.y ;.#.v.C+[.9.2.D+D+<.A @.M.g+Z.E+F+G+,%'%w + ",
"+ # )%!%,@=@-@;@>@,@'@)@!@L+~@{@x.B A B H O O ..#.[+P P O 6.k.{.o$S a.S o$:.Q D -.-...#.@.M.<+q.A v.r.q.+.N.M.X+Y+Z+`+ @6#'%w + ",
"+ # )%~%{%6@7@8@9@0@a@b@c@d@e@f@g@O B M H G P t.t.O O I I L F.{.H$].{.a.R Z W P C q.z ^@q.-+3+z.D./@-+-+_+-+3+&.(@_@`+:@]%'%w + ",
"+ # ^%~%/%s@t@u@v@w@x@y@z@A@B@C@D@t.A -.3.I !.O H O H O L ~.F.U.I$I$G$a.i._.h@9.B B.C.y.z $.&.g+-+-+-+.+z.z.X+i@L.j@E+k@]%'%w + ",
"+ # (%_%:%N@9@v@O@P@Q@R@S@c@o@T@P.A B -.h.l.!.!.I O H H U ^.^.F.<%n$n${.V h@Z X D z M.$.s.q.X+L.i@#+-+#+Y.E@H.`.`.)+7+F@]%'%w '#",
"+ # (%[%}%$#%#&#*#u@=#-#;#>#,#Q+I.-.O ;. .<.!.>.'.I 6.6.k.V |%1%2%3%4%H$|%S R (.9.y <+r.@.z *+L.4+`.V@W@V@V@,+;+i+X@Y@Z@5%'%w '#",
"+ # '%6%7%3#4#5#v@O@6#7#8#>#9#L+0#*+;.I M  .6.>.~.k.U !.T >.{.8%9%0%a%n${.^.Q :.9.A [.<+!#!#M.I.~#)+;+{#!+]#y+^#X@)+/#(#*%b%w + ",
"+ # c%d%e%j#k#l#6#O@m#n#o#p#q#r#s#t#z O A R.2.'.>.>.~.T 2+^.{.G$2%f%0%a%H$^.~.W ).O j.C.f.C.r.A.4+b#F+7+>+/+X@c#U+(#f+v+g%b%w + ",
"+ # h%i%j%F#G#H#I#;@/ =@J#K#L#M#`+N#1.D O 1.O#U V V >.T T ^.{.k%l%m%9%n%n%^.U ,.>.P C [.f.r.v.+.@+Y@k@n+Y@/+^+w#x#a+y#s+o%#%w + ",
"+ # p%q%r%T#U#V#W#=@X#Y#B#Z#R+f+j+`# $#.9.B O#l.U >.>.T U F.|%2%0%s%t%].n$0.V U ).L  .[.<+f.[.!##+>+P#m+U+b+^+w#a+y#T+v+u%v%w + ",
"+ # p%w%`@&$.#*$=$}#t+-$;$>$,${#'$)$:+q.O ;.3.3.L ~.V V 2+2+1%x%N$y%t%V o$R S '.>.I M [.d.C.[.$.$+++6+.$l+y#+$@$y#S+C#T+z%= w + ",
"+ # = A%f+r#R+l@l@}$f+|$($1$2$`.i+g+:+z.N t.H -.l.U S S ~./.2+|%8%F./.U V (.S >.>.G l.j.E.[.c.!#Q./@!$~${$7+]${+]$f+^$/++%= w + ",
"+ # .%*#e+{#/#Z@m+6$7+7$D@8$9$L.@+Y.@+ $r.O I -.h.6.V S ^.5./.F.F.^.U 4.U S R W >.'.H -.3$r.[.B.t.+.M.V.~$U+^+d+4$/+7+;+B%= w + ",
"+ # C%D%E%F%G%H%6#I%J%K%L%p.M%N%O%K%P%Q%R%S%[ ^ ^ _ } f 1 3 l T%U%} 6 0$4 1 g k e 1 3 5 V%W%t t W$W$X%O%Y%Z%`% &.&+&`%@&#&= w + ",
"+ $ % & > = .%.%$&p%.%.%* - > .%= > > = > > * * * * - - ; ; - * * - - * - - , , , , - * > > > > * * * > .%p%p%p%= > = p%%&% $ + ",
". # $ w w w w w w w w w w w w w w w w w w w w w w w w &&w w w w w w w w w w w w w w w w w w w w w w &&w w w w w w w w w w $ # . ",
"@ . + + + + + + + + + + + + + + + + + + + + '#'#'#+ + '#+ + + + + + + + + + + + + + + + + + + '#+ + '#+ + '#+ '#+ + + + + + . @ "};
