/* XPM */
static char * theking_xpm[] = {
"64 64 544 2",
"  	c #FFFFFF",
". 	c #EFE5E0",
"+ 	c #E4D1C8",
"@ 	c #FEFDFD",
"# 	c #FDFCFB",
"$ 	c #D9993E",
"% 	c #EEAC00",
"& 	c #E7D7D0",
"* 	c #FCFBF9",
"= 	c #F9F6F4",
"- 	c #FFFEFE",
"; 	c #D6AB8C",
"> 	c #D4974F",
", 	c #F4EDEA",
"' 	c #D59D64",
") 	c #DA982B",
"! 	c #F2EAE6",
"~ 	c #DCB495",
"{ 	c #DEC0AF",
"] 	c #FEFEFE",
"^ 	c #FDFBFA",
"/ 	c #D6984B",
"( 	c #E19D0D",
"_ 	c #EFE5E1",
": 	c #F4EEEA",
"< 	c #E2A01F",
"[ 	c #DEC3B6",
"} 	c #FEFEFD",
"| 	c #D7A880",
"1 	c #D79741",
"2 	c #F3EBE8",
"3 	c #F5EEEA",
"4 	c #C37A1F",
"5 	c #D8AC89",
"6 	c #F7B600",
"7 	c #DDBAA1",
"8 	c #F2E9E4",
"9 	c #D38D0A",
"0 	c #E9A501",
"a 	c #EADCD6",
"b 	c #DCA35E",
"c 	c #DCA153",
"d 	c #DAAA7D",
"e 	c #E8AC08",
"f 	c #F6B601",
"g 	c #E4A32D",
"h 	c #DDBDAA",
"i 	c #DCB89D",
"j 	c #E09F30",
"k 	c #D59F6B",
"l 	c #DDB086",
"m 	c #F8B700",
"n 	c #6AC39A",
"o 	c #B7B65C",
"p 	c #EBA800",
"q 	c #EBDDD8",
"r 	c #DDBAA2",
"s 	c #E6A200",
"t 	c #D59706",
"u 	c #31D4C2",
"v 	c #8AB584",
"w 	c #E09C00",
"x 	c #F1AF00",
"y 	c #DAA46B",
"z 	c #DABDAD",
"A 	c #EDAA00",
"B 	c #A1B970",
"C 	c #D1B43B",
"D 	c #F3B100",
"E 	c #E19D00",
"F 	c #D79100",
"G 	c #DFC6BA",
"H 	c #EEF1F0",
"I 	c #D6D9D8",
"J 	c #BEC5C2",
"K 	c #B0BDB8",
"L 	c #AABBB4",
"M 	c #A4B8B0",
"N 	c #A4B8AF",
"O 	c #98A090",
"P 	c #A99B63",
"Q 	c #AD954F",
"R 	c #B79230",
"S 	c #CA9A19",
"T 	c #DCA60E",
"U 	c #EFB203",
"V 	c #E8A600",
"W 	c #F0E6E1",
"X 	c #E2E5E4",
"Y 	c #B4BFBA",
"Z 	c #91AFA2",
"` 	c #8DB6A4",
" .	c #A0CBB8",
"..	c #ABD7C3",
"+.	c #ADD9C5",
"@.	c #ACD8C4",
"#.	c #A4D0BC",
"$.	c #98C2AF",
"%.	c #8AB09E",
"&.	c #889F87",
"*.	c #A7B6AE",
"=.	c #C5CBC9",
"-.	c #EBEDED",
";.	c #FDFDFD",
">.	c #D0D4D3",
",.	c #97B1A6",
"'.	c #97C0AE",
").	c #9FCBB7",
"!.	c #87B4A0",
"~.	c #A7D3BF",
"{.	c #A8D4C0",
"].	c #92BAA8",
"^.	c #97B2A6",
"/.	c #C3C9C7",
"(.	c #F5F6F6",
"_.	c #DCDFDE",
":.	c #93ADA2",
"<.	c #8AB6A3",
"[.	c #8BB0A0",
"}.	c #B9C2BE",
"|.	c #F7F8F8",
"1.	c #F8F9F9",
"2.	c #ADBAB5",
"3.	c #95BFAD",
"4.	c #82B09C",
"5.	c #9ECAB6",
"6.	c #A9D5C1",
"7.	c #8CAC9F",
"8.	c #D9DDDB",
"9.	c #EEEFEF",
"0.	c #91AAA0",
"a.	c #9DCAB6",
"b.	c #91BEAA",
"c.	c #9DC9B6",
"d.	c #94BDAB",
"e.	c #BEC6C3",
"f.	c #EBEDEC",
"g.	c #8CAB9E",
"h.	c #ABD7C4",
"i.	c #AAD6C2",
"j.	c #8AB7A4",
"k.	c #9DC7B4",
"l.	c #B6C0BD",
"m.	c #FEFFFE",
"n.	c #F1F2F2",
"o.	c #8DAC9F",
"p.	c #ADD9C4",
"q.	c #9AC6B2",
"r.	c #8DB8A5",
"s.	c #C7CDCB",
"t.	c #FBFBFB",
"u.	c #97ADA3",
"v.	c #9BC8B4",
"w.	c #92B9A8",
"x.	c #E3E5E4",
"y.	c #B8C2BE",
"z.	c #A5D1BD",
"A.	c #94ADA2",
"B.	c #FCFDFC",
"C.	c #EAECEB",
"D.	c #8FB6A5",
"E.	c #A9D6C2",
"F.	c #A2CDBA",
"G.	c #9FCAB7",
"H.	c #9EC9B6",
"I.	c #A0CAB7",
"J.	c #CED3D1",
"K.	c #A8B7B1",
"L.	c #A0CCB9",
"M.	c #96C0AD",
"N.	c #8FB9A7",
"O.	c #8BB4A3",
"P.	c #8CB4A2",
"Q.	c #8FB7A5",
"R.	c #95BEAC",
"S.	c #95BFAC",
"T.	c #96BFAC",
"U.	c #96BFAD",
"V.	c #9AC5B2",
"W.	c #A4D0BD",
"X.	c #98B1A7",
"Y.	c #F1F3F3",
"Z.	c #8BB2A1",
"`.	c #EEF0F0",
" +	c #C7CCCA",
".+	c #A6D1BE",
"++	c #8CB5A3",
"@+	c #87B09F",
"#+	c #86AF9D",
"$+	c #85AD9C",
"%+	c #82AB9A",
"&+	c #81A998",
"*+	c #82AA99",
"=+	c #83AC9B",
"-+	c #85AE9D",
";+	c #8EB8A6",
">+	c #91BBA9",
",+	c #94BFAD",
"'+	c #9CC7B4",
")+	c #A2CEBA",
"!+	c #A8B9B2",
"~+	c #9ECAB7",
"{+	c #99C5B2",
"]+	c #99C3B1",
"^+	c #A0CBB7",
"/+	c #A6D2BF",
"(+	c #ACD7C4",
"_+	c #BCC4C1",
":+	c #91AFA3",
"<+	c #A3CFBB",
"[+	c #A1CDBA",
"}+	c #B7C1BD",
"|+	c #88AC9D",
"1+	c #94BFAC",
"2+	c #8FB9A6",
"3+	c #8DB5A3",
"4+	c #8EB6A5",
"5+	c #8FB8A6",
"6+	c #90B9A7",
"7+	c #91B9A7",
"8+	c #92BCAA",
"9+	c #99C4B1",
"0+	c #9FCBB8",
"a+	c #AAD7C3",
"b+	c #BAC3C0",
"c+	c #A7D2BF",
"d+	c #CBD0CF",
"e+	c #92AFA3",
"f+	c #79A493",
"g+	c #589681",
"h+	c #599983",
"i+	c #629784",
"j+	c #94BEAB",
"k+	c #A1CCB9",
"l+	c #73A08E",
"m+	c #609985",
"n+	c #649B87",
"o+	c #7BA594",
"p+	c #93BCAA",
"q+	c #E6E9E9",
"r+	c #AABAB4",
"s+	c #75A18F",
"t+	c #6BB39A",
"u+	c #71BBA1",
"v+	c #5FA28B",
"w+	c #8CB6A4",
"x+	c #5A9580",
"y+	c #70BAA0",
"z+	c #6EB89E",
"A+	c #5B9480",
"B+	c #9DC8B5",
"C+	c #8FADA0",
"D+	c #D3D7D6",
"E+	c #61A58E",
"F+	c #5B9984",
"G+	c #639683",
"H+	c #5D9480",
"I+	c #A9D4C0",
"J+	c #FBFCFC",
"K+	c #90ACA1",
"L+	c #699A87",
"M+	c #6FB99F",
"N+	c #76A290",
"O+	c #90B8A7",
"P+	c #68AE96",
"Q+	c #6DB59C",
"R+	c #81AB99",
"S+	c #8DAEA0",
"T+	c #F6F7F7",
"U+	c #DADEDD",
"V+	c #96BEAC",
"W+	c #5FA28A",
"X+	c #5B9A84",
"Y+	c #649583",
"Z+	c #5E9782",
"`+	c #9AC3B1",
" @	c #C0C8C6",
".@	c #9AC4B2",
"+@	c #86AE9D",
"@@	c #6FB89E",
"#@	c #69B198",
"$@	c #589882",
"%@	c #65AA92",
"&@	c #97C1AE",
"*@	c #C8CECC",
"=@	c #8CB2A2",
"-@	c #76A491",
";@	c #69B097",
">@	c #80A998",
",@	c #B3BEBA",
"'@	c #ECEEEE",
")@	c #AFBCB7",
"!@	c #8CAD9F",
"~@	c #60917F",
"{@	c #54947E",
"]@	c #75A491",
"^@	c #8DB3A2",
"/@	c #C9D0CE",
"(@	c #95AEA5",
"_@	c #62A68F",
":@	c #66AC94",
"<@	c #67AD94",
"[@	c #64A991",
"}@	c #54937D",
"|@	c #66AC93",
"1@	c #5EA089",
"2@	c #5A9B84",
"3@	c #5A9A84",
"4@	c #69AF97",
"5@	c #68AF96",
"6@	c #6DA08C",
"7@	c #A2B4AD",
"8@	c #ECEDED",
"9@	c #EEF0EF",
"0@	c #749488",
"a@	c #5C9E87",
"b@	c #599A84",
"c@	c #508E79",
"d@	c #4D8974",
"e@	c #579882",
"f@	c #579781",
"g@	c #376C5B",
"h@	c #589983",
"i@	c #65AB92",
"j@	c #67AF96",
"k@	c #68AF97",
"l@	c #6CB59C",
"m@	c #6AB299",
"n@	c #60A38B",
"o@	c #528774",
"p@	c #93BCA9",
"q@	c #8EB7A5",
"r@	c #AEBBB6",
"s@	c #E3E5E5",
"t@	c #ADB8B4",
"u@	c #5F9A83",
"v@	c #92A682",
"w@	c #BCBD8F",
"x@	c #C8BC8D",
"y@	c #921804",
"z@	c #B48562",
"A@	c #DDDBA5",
"B@	c #A8AB81",
"C@	c #62A78F",
"D@	c #7E9D7E",
"E@	c #A6AE85",
"F@	c #B6B78A",
"G@	c #803826",
"H@	c #7C2517",
"I@	c #BCB78A",
"J@	c #BABB8D",
"K@	c #ADB288",
"L@	c #98A983",
"M@	c #6A9A80",
"N@	c #D3D8D6",
"O@	c #E3E7E6",
"P@	c #F0F2F1",
"Q@	c #F4F6F5",
"R@	c #9DA6A1",
"S@	c #E1DEA7",
"T@	c #EDE8AF",
"U@	c #E0D19D",
"V@	c #991500",
"W@	c #BA8964",
"X@	c #E8E3AC",
"Y@	c #8E9672",
"Z@	c #E4E0A9",
"`@	c #EDE7AE",
" #	c #A2412A",
".#	c #991401",
"+#	c #E6DBA5",
"@#	c #D6D4A0",
"##	c #8AB2A1",
"$#	c #F3F5F5",
"%#	c #D0D3D2",
"&#	c #E2DFA8",
"*#	c #E2D49F",
"=#	c #A7583D",
"-#	c #C1976F",
";#	c #C5C494",
">#	c #E1DDA7",
",#	c #A65036",
"'#	c #991200",
")#	c #E5D9A3",
"!#	c #CCCB99",
"~#	c #86AD9C",
"{#	c #FCFDFD",
"]#	c #C2C293",
"^#	c #D9D7A2",
"/#	c #CBCA98",
"(#	c #EAE1A9",
"_#	c #E9E0A8",
":#	c #ECE7AE",
"<#	c #B6B88C",
"[#	c #87AD9C",
"}#	c #B3B8A5",
"|#	c #B3B588",
"1#	c #9BAE8F",
"2#	c #87AD9D",
"3#	c #FDFEFD",
"4#	c #DEE1E0",
"5#	c #CCCC9A",
"6#	c #ECE7AF",
"7#	c #D5D39F",
"8#	c #B1B58B",
"9#	c #A0B08E",
"0#	c #7B927A",
"a#	c #E6E2AA",
"b#	c #DDDAA5",
"c#	c #8DB5A2",
"d#	c #FAFBFB",
"e#	c #F4F5F5",
"f#	c #F9FAFA",
"g#	c #D1D5D3",
"h#	c #C5CAC8",
"i#	c #D2D6D5",
"j#	c #B3BAAE",
"k#	c #CBCB99",
"l#	c #91A88D",
"m#	c #A2AD88",
"n#	c #9BA987",
"o#	c #AAD6C3",
"p#	c #87AF9E",
"q#	c #C6CCCA",
"r#	c #A6B7B0",
"s#	c #91B0A3",
"t#	c #85AC9C",
"u#	c #89B1A0",
"v#	c #89B2A0",
"w#	c #97B0A6",
"x#	c #D6DAD9",
"y#	c #FDFEFE",
"z#	c #BFC7C4",
"A#	c #A1CDB9",
"B#	c #A0CCB8",
"C#	c #F2F4F4",
"D#	c #AAB099",
"E#	c #A4AE89",
"F#	c #9FA47C",
"G#	c #E8E4AC",
"H#	c #EAE6AD",
"I#	c #A9B089",
"J#	c #9EC8B5",
"K#	c #84AC9A",
"L#	c #98ACA4",
"M#	c #8CB4A3",
"N#	c #A6D2BE",
"O#	c #91B9A8",
"P#	c #BAC4C0",
"Q#	c #A1CCB8",
"R#	c #A7D2BE",
"S#	c #98ADA4",
"T#	c #9CAEA6",
"U#	c #7AA191",
"V#	c #8CAD98",
"W#	c #A7B38E",
"X#	c #AAB38D",
"Y#	c #8FAC95",
"Z#	c #A4CFBB",
"`#	c #9BC6B3",
" $	c #AEDAC6",
".$	c #BBC3C0",
"+$	c #8BB1A1",
"@$	c #88B19F",
"#$	c #7DA594",
"$$	c #7EA594",
"%$	c #D4D7D6",
"&$	c #618778",
"*$	c #93BDAA",
"=$	c #97C1AF",
"-$	c #82A998",
";$	c #A3CEBB",
">$	c #7BA392",
",$	c #9BC5B2",
"'$	c #8DAFA0",
")$	c #D1D5D4",
"!$	c #92BBA9",
"~$	c #79A090",
"{$	c #7EA595",
"]$	c #85AC9B",
"^$	c #7FA897",
"/$	c #87B09E",
"($	c #D2D7D5",
"_$	c #A9D4C1",
":$	c #7EA695",
"<$	c #9AC4B1",
"[$	c #87AF9D",
"}$	c #A4CFBC",
"|$	c #80A797",
"1$	c #CAD0CE",
"2$	c #B4BFBB",
"3$	c #A5D0BD",
"4$	c #658A7B",
"5$	c #88AF9E",
"6$	c #83AB9A",
"7$	c #8FB4A4",
"8$	c #A2B3AC",
"9$	c #84AC9B",
"0$	c #759C8C",
"a$	c #8BB3A2",
"b$	c #80A997",
"c$	c #91BAA8",
"d$	c #92ACA1",
"e$	c #E6E9E8",
"f$	c #FCFCFC",
"g$	c #B5BFBB",
"h$	c #7AA190",
"i$	c #BBC4C1",
"j$	c #DFE2E1",
"k$	c #96AEA4",
"l$	c #96C0AE",
"m$	c #84AB9A",
"n$	c #8AB0A0",
"o$	c #B0BCB8",
"p$	c #EFF1F1",
"q$	c #E0E3E2",
"r$	c #8AA89B",
"s$	c #99B2A8",
"t$	c #C4CBC8",
"u$	c #A1B8AE",
"v$	c #AED9C5",
"w$	c #99C3B0",
"x$	c #94B1A5",
"y$	c #ADBCB6",
"z$	c #C9CECC",
"A$	c #EFF1F0",
"B$	c #A7BBB2",
"C$	c #81A295",
"D$	c #A3B9B0",
"E$	c #A7BAB2",
"F$	c #A9BBB3",
"G$	c #AFBEB8",
"H$	c #BFC6C4",
"I$	c #ACBCB5",
"J$	c #97ADA4",
"K$	c #8CB2A1",
"L$	c #F3F4F3",
"M$	c #EFF0F0",
"N$	c #9FC9B6",
"O$	c #C1C9C6",
"P$	c #9AAFA7",
"Q$	c #E3E6E5",
"R$	c #C8CDCC",
"S$	c #EDEFEE",
"                                                                        . + @                                                   ",
"                                                                      # $ % &                                                   ",
"                                                              * =     - ; > ,                                                   ",
"                                                            # ' ) !     ~ {       ] #                                           ",
"                                                            ^ / ( _   : < [     } | 1 2                                         ",
"                                                              3 4 2 @ 5 6 7     8 9 0 a                                         ",
"                                                              - b c d e f g h i j k a -                                         ",
"                                                                l m f n o m m m p q                                             ",
"                                                                r s t u v w x m y ]                                             ",
"                                                                z A 6 B C D E F G                                               ",
"                                                ] H I J K L M N O P Q R S T U V W                                               ",
"                                          ] X Y Z `  ...+.@...+.+.+.+...#.$.%.&.*.=.-.]                                         ",
"                                      ;.>.,.'.@.+.+.+.+.+.).!.+.+.+.+.+.+.+.+.+.~.{.].^./.(.                                    ",
"                                    _.:. .+.+.+.+.+.+.+.+.+.+.+.+.+.+.+.+.+.+.@.<.+.+.+.~.[.}.|.                                ",
"                                1.2.3...4.+.+.+.+.+.+.+.+.+.+.+.+.+.5.6.+.+.+.+.+.+.+.+.+.+.~.7.8.                              ",
"                              9.0.~.+.+.+.+.+.+.a.b.+.+.+.+.+.+.+.+.c.6.+.+.+.+.+.+.+.+.+.+.+.+.d.e.]                           ",
"                            f.g.h.+.+.+.+.+.+.+.+.+.+.+.+.+.+.+.+.+.+.+.+.+.+.+.+.+.+.+.i.j.+.+.+.k.l.m.                        ",
"                          n.o.@.+.5...+.+.+.+.+.+.+.+.+.+.+.+.+.+.+.+.+.+.+.+.+.+.+.+.+.+.p.+.+.+.q.r.s.                        ",
"                        t.u...+.+.v.i.+.+.+.+.+.+.+.+.+.+.+.+.+.+.+.+.+.+.+.+.+.+.+.+.+.+.+.+.+.+.+.+.w.x.                      ",
"                        y.z.+.+.+.+.+.+.+.+.+.+.+.+.+.+.+.+.+.+.+.+.+.+.+.+.+.+.+.+.+.+.+.+.+.+.+.+.+.+.A.B.                    ",
"                      C.D.+.+.+.+.+.+.+.+.+.+.@.E.z.F.G.H.G.F.z.6.@.+.+.+.+.+.+.+.+.+.+.+.+.+.+.+.+.+.+.I.J.                    ",
"                      K.@.+.+.+.+.+.+...L.M.N.O.P.Q.].d.R.S.T.U.M.V.W.+.+.+.+.+.+.+.+.+.+.+.+.+.+.+.+.+.+.X.m.                  ",
"                    Y.Z.+.+.+.+.+.+.+.+.+.+.+.+.+.+.+.+.+.+.+.+.+.+.+.+.+.+.+.+.+.+.+.+.+.+.+.+.+.+.+.+.+.` `.                  ",
"                     +.++.+.+.+.+.+.6.G.3.++@+#+$+%+&+&+&+*+=+-+@+O.;+>+,+'+W.@.+.+.+.+.+.+.+.+.+.+.+.+.+.)+>.                  ",
"                    !++.+.+.+.{.~+{+]+^+/+..+.+.+.+.+.+.+.+.+.+.+.+.+.+.+.@.~.{.+.+.+.+.+.+.+.+.+.+.+.+.+.(+_+                  ",
"                    :++.+.+.+.+.+.+.+.+.+.+.+...6..+<+[+)+#.{...+.+.+.+.+.+.+.+.+.+.+.+.+.+.+.+.+.+.+.+.+.+.}+                  ",
"                  ] |++.+.+.+.+.+.+.@.[+V.1+2+3+3+4+5+6+7+6+5+5+8+9+0+a++.+.+.+.+.+.+.+.+.+.+.+.+.+.+.+.+.@.b+                  ",
"                  ] |++.+.+.+.+.+.+.+.+.+...c++.+.+.+.+.+.+.+.+.+.+.+.+.+.+.+.+.+.+.+.+.+.+.+.+.+.+.+.+.+..+d+                  ",
"                    e++.+.+.+.+.+.+.+...f+g+h+i+j++.+.+.+.k+l+m+n+o+z.+.+.+.+.+.+.+.+.+.+.+.+.+.+.+.+.+.+.p+q+                  ",
"                    r++.+.+.+.+.+.+.+.s+t+u+u+u+v+w++.+.H.x+y+u+u+z+A+B++.+.+.+.+.+.+.+.+.+.+.+.+.+.+.+.+.C+;.                  ",
"                    D+H.+.+.+.+.+.+.U.E+u+u+u+u+u+F+F.@.G+y+u+u+u+u+u+H+I++.+.+.+.+.+.+.+.+.+.+.+.+.+.+.~.e.                    ",
"                    J+K++.+.+.+.+.+.L+u+u+u+u+u+u+M+N+O+P+u+u+u+u+u+u+Q+R++.+.+.+.+.+.+.+.+.+.+.+.+.+.+.S+T+                    ",
"                      U+V++.+.+.+.I.W+u+u+u+u+u+u+u+X+Y+u+u+u+u+u+u+u+u+Z+@.+.+.+.+.+.+.+.+.+.+.+.+.+.`+D+                      ",
"                         @.@+.+.+.+@@@u+u+u+u+u+u+u+#@$@u+u+u+u+u+u+u+u+%@&@+.+.+.+.+.+.+.+.+.+.+.+.I.}+                        ",
"                          *@=@..+.-@u+u+u+u+u+u+u+u+W+;@u+u+u+u+u+u+u+u+y+>@+.+.+.+.+.+.+.+.+.+.+..@,@]                         ",
"                            '@)@!@~@u+u+u+u+u+u+u+u+{@y+u+u+u+u+u+u+u+u+u+]@+.+.+.+.+.+.+.+.+.@.^@/@                            ",
"                                ] (@M+u+t+_@v+:@<@[@}@@@y+|@1@2@3@4@u+W+5@6@+.+.+.+.+.+.+.+.U.7@8@                              ",
"                                9@0@a@y+b@{@c@d@e@f@g@h@M+E+i@j@k@l@y+m@n@o@ .+.{.p@U.q@S+r@s@                                  ",
"                                t@m@u@v@w@x@y@z@A@B@C@D@E@F@G@H@I@J@K@L@M@3@3.+.j+N@O@P@;.                                      ",
"                                Q@R@S@T@T@U@V@W@T@X@Y@Z@T@`@ #.#+#T@T@T@@#5++.+.##$#                                            ",
"                                  %#&#T@T@*#=#-#T@T@;#>#T@T@,#'#)#T@T@T@!#H.+.+.~#{#                                            ",
"                                  n.]#T@T@T@T@T@T@T@^#/#T@T@(#_#:#T@T@T@<#..+.+.[#;.                                            ",
"                                    }#T@T@T@T@T@T@T@:#|#T@T@T@T@T@T@T@T@1#+.+.+.2#3#                                            ",
"                                    4#5#T@T@T@6#7#8#9#0#a#T@T@T@T@T@T@b#c#+.+.+.~#;.        d#e#$#f#                            ",
"                          Q@g#h#i#(.  j#a#T@k#l#d.i.+.{.m#:#T@T@T@T@:#n#o#+.+.+.p#f#P@q#r#s#t#u#v#~#w#x#                        ",
"                      y#z#[.A#i.B#[.}+C#D#E#&@+.+.+.+.+.M.F#G#T@T@H#I#J#+.+.+.+.K#L#M#N#+.+.+.+.+.+.+.O#s@                      ",
"                      P#Q#+.+.+.+.+.R#S#T#.++.+.+.+.+.@.U#<+V#W#X#Y#Z#+.+.+.+.`#d.+.+.+.+.+.i.p#+.+.+. $.$                      ",
"                    Y.+$+.`+@$+.+.+.+.#$z.+.+.+.+.+.+.q@ .+.+.+.+.+.+.+.+.+.+.+.+.+.+.+.+.+.+.$$q@+.+.{.=.                      ",
"                    %$F.{.&$..+.+.+.*$=$+.+.+.+.+.+.+.-$+.+.+.+.+.+.+.+.+.+.+.+.+.+.+.+.+.;$>$,$>@+.+.'$e#                      ",
"                    )$;$!$3.~$~.+.+.{$+.+.+.+.+.+.+.+.]$+.+.+.+.+.+.+.+.+.+.+.+.+.+.+.k+^$/$i.+.&++.R.($                        ",
"                    `.M#`+;$_$:$p+<$&@+.+.+.+.+.+.+...[$+.+.+.+.+.+.+.+.+.+.+.+.}$v#|$` i.+.+.+.i.j+1$                          ",
"                      2$3$+.+.+.`+4$@.+.+.+.+.+.+.+...5$+.+.+.+.+.+.+.+.k+5+6$-$3+N#+.+.+.+.+.+.7$($                            ",
"                      J+8$Z#+.+.+.9$+.+.+.+.+.+.+.+.@.0$p+O+a$+@6$b$*+*+c$;$+.+.+.+.+.+.+.+.3$d$e$                              ",
"                        f$g$p++.+.$++.+.+.+.+.+.+.+.+.h$B+B#z.i.+.+.+.+.+.+.+.+.+.+.+.+.i.+$i$d#                                ",
"                            j$k$l$m$+.+.+.+.+.+.+.+.+.*++.+.+.+.+.+.+.+.+.+.+.+.+.+.N#n$o$p$                                    ",
"                              ] q$r$+.+.+.+.+.+.+.+.+.6$+.+.+.+.+.+.+.+.+.+.+.c+q@s$t$(.                                        ",
"                                  u$+.+.+.+.+.+.+.+.+.$++.+.+.+.v$..#.w$Z.x$y$z$A$                                              ",
"                                  B$+.+.+.+.+.+.+.+.+.C$D$E$F$G$,@H$>.X T+]                                                     ",
"                                  I$+.+.+.+.+.+.+.+.+.L                                                                         ",
"                                  i#^++.+.+.+.+.+.+.{.=.                                                                        ",
"                                  ;.J$@.+.+.+.+.+.+.K$L$                                                                        ",
"                                    M$g.@.+.+.+.+.N$O$                                                                          ",
"                                      `.P$j+_$/+M#i$]                                                                           ",
"                                        ] Q$=.R$S$                                                                              "};
