/* XPM */
static char *c7af67f1ecef4f5ce2606c1e66371374CucoPLpGz69T1P64[] = {
/* columns rows colors chars-per-pixel */
"64 64 18 1 ",
"  c #000000",
". c #AA2222",
"X c #AF2323",
"o c #B32525",
"O c #B52525",
"+ c #B62525",
"@ c #B82626",
"# c #B92626",
"$ c #BA2626",
"% c #BC2727",
"& c #BD2727",
"* c #BF2828",
"= c #C32929",
"- c #C42929",
"; c #CA2B2B",
": c #CB2B2B",
"> c #CD2C2C",
", c #CE2C2C",
/* pixels */
"                                                                ",
"                                                                ",
"                                                                ",
"                                                                ",
"                                                                ",
"                                                                ",
"                                                                ",
"                                                                ",
"                                                                ",
"                                                                ",
"                                                                ",
"                                                                ",
"                                                                ",
"                                                                ",
"                               o&-;,,;-&o                       ",
"                            @;,,,,,,,,,,,,;@                    ",
"                          &,,,,,,,,,,,,,,,,,,&                  ",
"                        O,,,,,,,,,,,,,,,,,,,,,,O                ",
"                       *,,,,,,,,,,,,,,,,,,,,,,,,*               ",
"                     .=,,,,,,,,,,,,,,,,,,,,,,,,,,=.             ",
"                     =,,,,,,,,,,,,,,,,,,,,,,,,,,,,=             ",
"                    *,,,,,,,,,,,,,,,,,,,,,,,,,,,,,,*            ",
"                   O,,,,,,,,,,,,,,,,,,,,,,,,,,,,,,,,O           ",
"                   ,,,,,,,,,,,,,,,,,,,,,,,,,,,,,,,,,,           ",
"                  @,,,,,,,,,,,,,,,,,,,,,,,,,,,,,,,,,,@          ",
"                  ,,,,,,,,,,,,,,,,,,,,,,,,,,,,,,,,,,,,          ",
"                 X,,,,,,,,,,,,,,,,,,,,,,,,,,,,,,,,,,,,X         ",
"                 @,,,,,,,,,,,,,,,,,,,,,,,,,,,,,,,,,,,,@         ",
"                 -,,,,,,,,,,,,,,,,,,,,,,,,,,,,,,,,,,,,-         ",
"                 ;,,,,,,,,,,,,,,,,,,,,,,,,,,,,,,,,,,,,;         ",
"                 ,,,,,,,,,,,,,,,,,,,,,,,,,,,,,,,,,,,,,,         ",
"                 ;,,,,,,,,,,,,,,,,,,,,,,,,,,,,,,,,,,,,;         ",
"                 -,,,,,,,,,,,,,,,,,,,,,,,,,,,,,,,,,,,,-         ",
"                 @,,,,,,,,,,,,,,,,,,,,,,,,,,,,,,,,,,,,@         ",
"                 X,,,,,,,,,,,,,,,,,,,,,,,,,,,,,,,,,,,,X         ",
"                  ,,,,,,,,,,,,,,,,,,,,,,,,,,,,,,,,,,,,          ",
"                  @,,,,,,,,,,,,,,,,,,,,,,,,,,,,,,,,,,@          ",
"                   ,,,,,,,,,,,,,,,,,,,,,,,,,,,,,,,,,,           ",
"                   O,,,,,,,,,,,,,,,,,,,,,,,,,,,,,,,,O           ",
"                    *,,,,,,,,,,,,,,,,,,,,,,,,,,,,,,*            ",
"                     =,,,,,,,,,,,,,,,,,,,,,,,,,,,,=             ",
"                     .=,,,,,,,,,,,,,,,,,,,,,,,,,,=.             ",
"                       *,,,,,,,,,,,,,,,,,,,,,,,,*               ",
"                        O,,,,,,,,,,,,,,,,,,,,,,O                ",
"                          &,,,,,,,,,,,,,,,,,,&                  ",
"                            @;,,,,,,,,,,,,;@                    ",
"                               o&-;,,;-&o                       ",
"                                                                ",
"                                                                ",
"                                                                ",
"                                                                ",
"                                                                ",
"                                                                ",
"                                                                ",
"                                                                ",
"                                                                ",
"                                                                ",
"                                                                ",
"                                                                ",
"                                                                ",
"                                                                ",
"                                                                ",
"                                                                ",
"                                                                "
};
